Patient4_TMGait_0pt7_02_left_23_EMG.mot
version=1
nRows=33
nColumns=33
inDegrees=no
endheader
time	1LAddLong	2LGlutMax	3LGlutMed	4LIliopsoas	5LSemiMemb	6LBicFemLong	7LRecFem	8LVastMed	9LVastLat	10LGasMed	11LTibAnt	12lTibPost	13LPeroneusLong	14LSol	15LExtDigLong	16LFlexDigLong	17RAddLong	18RGlutMax	19RGlutMed	20RIliopsoas	21RSemiMemb	22RBicFemLong	23RRecFem	24RVastMed	25RVastLat	26RGasMed	27RTibAnt	28RTibPost	29RPeroneusLong	30RSol	31RExtDigLong	32RFlexDigLong
26.12	0.019989	0.14801	-0.052795	0.008545	0.016479	0.062866	-0.065765	0.002289	0.16312	0.018768	0.060577	0.000305	0.001831	0.042267	-0.043945	0.01236	-0.005035	-0.42816	-0.32044	0.001831	-0.048828	-0.057526	-0.4184	-0.48828	-0.009613	-0.012207	0.080872	-0.001678	-0.29495	0.18112	0	-0.007935
26.121	0.011749	0.13077	-0.035248	-0.006409	0.009613	0.055389	-0.068207	0.012054	0.15442	0.008545	0.062866	0.005035	0.005646	-0.001221	-0.12421	0.001373	0.005798	-0.43045	-0.24429	0.010834	-0.045776	-0.052185	-0.298	-0.21759	0.079346	-0.008545	0.14343	-0.005798	0.008392	0.040283	-0.00061	-0.002747
26.122	0.010376	0.15457	0.002136	-0.009766	-0.001068	0.062256	-0.054626	0.005035	0.14099	-0.025635	0.009613	-0.002594	0.033264	0.011902	0.34103	-0.007172	0.022125	-0.30655	-0.215	0.020447	-0.043182	-0.066681	-0.099487	-0.29221	0.10513	-0.011444	0.27557	-0.001068	-0.085449	-0.028992	-0.001373	-0.003662
26.123	0.004425	0.15167	-0.013428	-0.014648	-0.011749	0.052795	-0.065613	0.006409	0.1532	-0.052795	-0.015411	-0.010681	0.039063	0.030212	0.003357	0.001984	0.027466	-0.36316	-0.43671	0.030365	-0.050049	-0.055695	0.024414	-0.29587	0.12238	-0.007019	0.38834	-0.000305	-0.16937	-0.072327	-0.000305	-0.009155
26.124	0.005188	0.10925	0.007782	-0.006104	-0.019989	0.03479	-0.045624	0.005646	0.13092	-0.049438	-0.007324	0.001526	0.050812	-0.016174	0.18616	0.009613	0.031433	-0.35416	-0.2449	0.02243	-0.044861	-0.049286	0.1178	-0.12985	0.10803	-0.007019	0.31006	-0.005798	-0.1384	-0.098114	-0.000916	-0.000763
26.125	0.006714	0.10056	0.014801	0.001373	0.016632	0.03952	-0.047455	0.006866	0.1387	-0.047302	0.065765	0.002136	0.032806	-0.025024	-0.24933	0.019836	0.035706	-0.36667	0.19134	-0.010529	-0.041199	-0.046387	0.068359	-0.10178	0.081024	-0.00061	0.084229	-0.001984	0.47241	-0.13016	0	-0.002899
26.126	0.002441	0.074463	-0.008392	-0.006409	0.039825	0.05127	-0.045013	0.004425	0.15381	-0.047302	0.070953	0.000153	0.004578	-0.020142	-0.15533	0.006714	0.037994	-0.3418	-0.52948	0.00351	-0.065765	-0.050354	0.061188	-0.10361	0.035858	0.001831	-0.003815	0.000763	-0.023499	-0.17639	-0.00061	-0.007477
26.127	-0.031891	0.07843	-0.002747	-0.015564	0.028381	0.048676	-0.066833	0.007324	0.1474	-0.029297	0.024261	-0.001678	0.020752	-0.002441	-0.10284	-0.000305	0.017395	-0.2977	-0.551	-0.007935	-0.035248	-0.037079	0.12039	-0.08728	0.028839	-0.001831	0.10834	-0.001221	-0.37628	-0.16953	-0.001373	-0.000153
26.128	-0.038452	0.1001	0.024414	0.006256	-0.03067	0.035248	-0.052948	0.005951	0.14374	-0.022736	-0.022278	-0.001221	0.039063	0.003967	-0.13611	0.002747	-0.002441	-0.4158	-0.42099	-0.00946	-0.16403	0.002747	0.14572	-0.065765	0.03952	-0.001221	0.31281	-0.007935	-0.64957	-0.058746	-0.001068	-0.007172
26.129	0.062256	0.077362	-0.002747	0.005341	-0.046234	0.026398	-0.05127	0.010376	0.14725	-0.035553	-0.045319	0.000153	0.073547	-0.023346	-0.073547	0.011444	0.00824	-0.39948	-0.18509	-0.051117	-0.064392	-0.010681	0.11261	0.043945	0.056	-0.012512	0.10986	-0.003967	-0.59174	-0.072937	-0.000916	-0.003052
26.13	-0.00824	0.11383	-0.023804	0.014038	0.019684	0.024109	-0.07309	0.009613	0.14969	-0.048981	-0.039215	0.001221	0.081177	-0.059204	-0.010834	0.005188	0.031281	-0.34561	0.40543	-0.0914	0.018921	-0.020447	0.1712	-0.019531	0.041809	-0.014496	-0.48904	-0.003357	0.1474	-0.015411	0.000916	-0.010376
26.131	0.014648	0.059509	-0.017395	-0.009766	0.054169	0.036316	-0.056	0.00351	0.15045	-0.086517	0.006256	0.002136	0.12161	-0.089722	0.002441	0.009613	0.023499	-0.39276	0.10346	-0.033722	-0.058594	0.022125	0.19638	-0.11551	0.036163	-0.013428	-0.43015	-0.003357	0.17441	-0.009918	-0.001678	-0.010376
26.132	0.01297	0.084534	-0.036621	-0.01709	0.038147	0.033417	-0.05127	0.005341	0.15366	-0.068817	0.10727	0.000916	0.090027	-0.05661	0.045929	0.003967	-0.011902	-0.42023	-0.41962	-0.022125	-0.22217	0.071411	0.21942	-0.17654	0.007935	-0.011902	-0.062103	-0.012207	0.020447	-0.070953	0.001526	-0.011444
26.133	0.023041	0.080566	-0.076294	-0.005798	0.041656	0.012207	-0.057373	0.004425	0.15045	-0.03418	0.06546	0.00412	0.067139	0.000458	0.058136	0.003815	0.015564	-0.4744	-0.36545	0.010834	-0.045471	0.012054	0.20371	-0.2829	-0.003815	-0.011444	0.10574	-0.00412	-0.17166	-0.11688	0.000305	-0.015106
26.134	0.011444	0.11673	-0.087891	-0.013275	0.02182	0.027924	-0.033112	0.00473	0.13657	-0.033417	0.067139	0.002441	0.068054	0.005188	0.09491	0.004883	0.034943	-0.41733	-0.93933	-0.085449	0.14389	-0.072784	0.082855	-0.33981	0.019684	-0.014648	-0.053406	-0.005035	-0.31921	-0.22308	0.002289	-0.016022
26.135	0.003815	0.059204	-0.041504	-0.002136	0.019531	0.02594	-0.028687	0.011902	0.12848	-0.04303	0.086365	0.000305	0.09491	-0.028687	0.046844	-0.002747	0.059204	-0.53024	-0.46341	-0.168	0.23178	-0.18631	-0.17761	-0.34958	-0.058441	-0.013275	0.15411	-0.004578	-0.29984	-0.32044	0.000916	-0.014648
26.136	0.000458	0.087433	0.025482	0.075073	0.004272	0.05661	-0.027618	0.00412	0.12024	-0.031128	0.04303	-0.002594	0.13062	-0.046387	0.028381	-0.005035	0.047607	-0.50522	-0.74265	0.022736	0.011597	-0.21027	-0.19379	-0.33035	-0.059814	0.002136	0.50034	-0.001068	-0.38864	-0.3363	-0.007629	-0.016174
26.137	-0.001984	0.066681	0.034943	0.071106	-0.016327	0.043488	-0.016174	0.006409	0.11246	-0.02182	0.017242	0.003204	0.13092	-0.02594	0.2095	-0.00412	-0.001984	-0.51148	-0.1944	0.2478	-0.57388	-0.11215	-0.088501	-0.16144	0.008698	-0.006714	0.48126	0.000458	-0.33264	-0.38757	0.001678	-0.02243
26.138	0.002441	0.034637	0.006866	0.007019	-0.042725	0.039673	-0.034943	0.007324	0.10986	-0.011597	0.028687	-0.002899	0.10422	-0.006714	0.32242	-0.00885	-0.051575	-0.48935	1.2457	0.23758	-0.31982	-0.027161	0.04776	0.001068	-0.017395	-0.020142	0.053558	-0.00946	-0.27542	-0.32349	-0.000153	-0.021515
26.139	0.009308	0.053864	0.036011	-0.02121	-0.059967	-0.000305	-0.041046	0.003815	0.10864	-0.035858	0.038605	-0.003815	0.15564	0.01358	-0.054474	0.000916	-0.10498	-0.43411	1.0849	0.11658	0.10803	0.17044	0.11337	0.11017	0.039063	-0.035858	-0.24124	-0.015869	-0.11856	-0.18677	-0.00061	-0.014343
26.14	0.005188	0.067749	0.046844	-0.024109	0.001068	-0.020905	-0.054169	-0.004425	0.12634	-0.020294	0.02182	0.002594	0.13016	-0.014648	-0.072327	-0.001221	-0.084229	-0.26642	1.6661	-0.011444	0.2565	0.17044	0.23697	0.11963	0.003357	-0.030365	-0.028076	-0.01236	0.077972	0.27252	-0.000305	-0.01358
26.141	0.022278	0.033112	0.005341	-0.013428	0.033417	0.011292	-0.052185	-0.003662	0.12268	-0.008545	0.033569	0.00412	0.081177	-0.009155	-0.12116	-0.002747	-0.045319	-0.31052	0.74356	-0.039215	0.17105	0.090637	-0.072327	0.077515	0.3775	-0.011597	0.09491	-0.009766	0.079346	0.27161	-0.00351	0
26.142	0.017395	0.041656	0.007629	0.013275	0.059814	0.068817	-0.040588	-0.001678	0.11658	-0.000153	0.045624	-0.001526	0.092163	0.000458	-0.11932	0.002747	-0.054626	-0.35721	-0.327	-0.14862	0.022736	0.10376	-0.30792	-0.18158	0.69473	-0.011444	0.087433	0.00824	0.047607	0.54047	-0.001678	-0.008698
26.143	0.019989	0.008087	0.026093	0.012665	0.049744	0.067749	-0.033264	-0.001373	0.12405	-0.015106	0.001526	0.005798	0.14252	0.007782	-0.12344	0.005646	-0.028839	-0.32501	-0.48141	-0.17746	-0.00824	0.088654	-0.31769	-0.16739	0.60135	-0.00824	-0.14832	-0.002441	0.096893	0.4985	-0.003357	0.002441
26.144	0.012665	0.024109	0.009155	0.019379	0.008698	0.041046	-0.040741	0.005035	0.12161	-0.000916	-0.042725	0.002747	0.11902	0.028381	-0.056305	-0.001221	0.003204	-0.28656	-0.47073	-0.052795	-0.059662	0.038757	-0.31937	-0.11536	0.25085	-0.011902	-0.15793	-0.010834	-0.004883	0.08194	0	-0.002747
26.145	0.004425	0.028229	-0.020905	0.006409	0.024872	0.015411	-0.04425	0.003967	0.12054	-0.017395	-0.005035	0.002441	0.13031	-0.048065	0.080719	0.004578	0.032806	-0.3244	-0.33264	0.06134	-0.093689	0.04776	-0.075378	-0.15411	0.006714	-0.011597	0.074768	-0.009308	-0.18662	-0.15488	0.000763	-0.016022
26.146	0.010071	0.033417	-0.023499	-0.006104	0.014038	0.030365	-0.055542	-0.001068	0.12177	-0.015869	0.16251	0.001068	0.10742	-0.10895	0.36804	-0.005493	0.004578	-0.28595	-0.35355	0.057526	-0.024719	0.06424	-0.057831	0.16861	0.12848	-0.008087	0.21774	0.000763	-0.30548	-0.73532	0.000763	-0.016327
26.147	0.005341	0.00885	-0.023956	0.0177	-0.000763	0.025635	-0.056915	0.00473	0.11551	-0.029755	0.099792	0.004883	0.082855	-0.1294	-0.014496	0	-0.01358	-0.28809	-0.4071	-0.030518	-0.041046	0.10391	0.25162	0.43854	-0.21851	-0.012207	0.25726	-0.00412	-0.2739	-0.66208	0.001526	-0.019379
26.148	0.014038	0.020752	-0.028076	0.011902	0.000305	0.054626	-0.049896	0.009613	0.093994	-0.052795	-0.19379	-0.002136	0.1059	-0.13428	-0.044403	0.006866	-0.010681	-0.2652	-0.32745	-0.017548	0.022583	0.057678	0.29358	0.39963	-0.56	-0.016174	0.1651	-0.003662	-0.098877	-0.002899	0.001373	-0.011597
26.149	0.017395	0.017548	-0.05661	0.001221	-0.011444	0.049591	-0.047302	0.005188	0.080261	-0.066833	-0.1503	0.003357	0.093536	-0.053101	-0.13809	0.000458	-0.002441	-0.25925	-0.016327	-0.033264	0.091248	0.021667	0.25421	0.36667	-0.52582	-0.010681	0.12146	0.003204	0.08194	0.59021	0.000305	-0.010071
26.15	0.017395	0.036774	-0.072632	-0.004272	-0.009613	0.00061	-0.040741	0.004425	0.064392	-0.086365	-0.07782	0.003204	0.14801	-0.030212	-0.13138	-0.004425	0.010223	-0.1712	0.078888	0.010681	0.021057	0.005646	0.22079	0.21027	-0.21729	-0.015564	0.04303	0.004883	0.080719	0.4805	0.000458	-0.014648
26.151	0.019379	0.032043	-0.065308	0.006714	0.006866	0.009155	-0.045013	-0.002747	0.08255	-0.070801	-0.021362	0.00412	0.15045	-0.061035	-0.090485	0.006256	0.015564	-0.15625	-0.27496	0.11658	-0.070801	0.01297	0.002747	0.13001	-0.20233	-0.016327	0.012665	0.002289	0.055542	0.12985	0.005341	-0.010376
26.152	0.003815	0.054016	0.027618	0.022736	0.012207	0.027161	-0.044556	0.005341	0.07782	-0.032349	-0.034332	0.003815	0.1181	-0.10925	0.006561	0.001068	0.00412	-0.13794	-0.19455	0.11948	-0.079956	0.025177	-0.1828	0.16235	-0.16876	-0.007019	-0.22598	-0.000153	-0.021973	-0.18753	-0.00061	-0.006866
